<mxfile host="app.diagrams.net" modified="2024-01-09T09:36:02.092Z" agent="Mozilla/5.0 (Windows NT 10.0; Win64; x64) AppleWebKit/537.36 (KHTML, like Gecko) Chrome/120.0.0.0 Safari/537.36" version="22.1.17" etag="ufCgGRvt9kRrEnZYvntH" type="github">
  <diagram name="페이지-1" id="9baUX_4-4E7d8-slRGh1">
    <mxGraphModel>
      <root>
        <mxCell id="0" />
        <mxCell id="1" parent="0" />
      </root>
    </mxGraphModel>
  </diagram>
</mxfile>
